<svg id="Camada_1" data-name="Camada 1" xmlns="http://www.w3.org/2000/svg" viewBox="0 0 410.78 317.45"><defs><style>.cls-1{fill:none;stroke:#000;stroke-miterlimit:10;stroke-width:5px;}.cls-2,.cls-3,.cls-4,.cls-5,.cls-6{isolation:isolate;}.cls-2{font-size:66px;}.cls-2,.cls-4,.cls-5,.cls-6{font-family:Carlito-Bold, Carlito;font-weight:700;}.cls-4,.cls-5,.cls-6{font-size:30px;}.cls-5{letter-spacing:-0.01em;}.cls-6{letter-spacing:-0.09em;}</style></defs><path d="M299.28,19.64V152.88c-.85,3.73-3.38,5.45-7,5.89a25.79,25.79,0,0,1-3.29.15c-17.73,0-35.46.06-53.2,0a15,15,0,0,0-8.75,2.68c-4.08,2.69-7.87,5.8-12.18,8.17a18.55,18.55,0,0,1-19,0,94.57,94.57,0,0,1-9.46-6.28q-1.8-1.27-3.65-2.47a12.83,12.83,0,0,0-7.27-2.08c-17.91.06-35.83,0-53.74,0a28,28,0,0,1-3.3-.15c-3.65-.42-6.12-2.22-7-5.89V19.27c1.11-2.54,2.59-4.76,5.51-5.34a20.37,20.37,0,0,1,4.2-.2c1.51,0,3.47-.67,4.42.27s.27,2.9.27,4.41V119.15c0,2.14.08,4.28.21,6.42.46,6.89,4.21,10.54,11.15,10.81,11,.42,22,.07,33,.2a101.7,101.7,0,0,1,10.62.43c5.16.6,9.29,2.79,12.19,7.16a14.3,14.3,0,0,0,9.21,6.46,13.91,13.91,0,0,0,14.72-5.54c2.23-2.89,4.47-5.66,8.06-6.94a25.62,25.62,0,0,1,7.71-1.41c12-.37,24.1-.08,36.16-.19a34.4,34.4,0,0,0,6.57-.44c5.93-1.17,8.72-4.27,9.2-10.35.16-2,.23-4,.23-6V15.9c0-1.76.37-2.42,2.17-2.18a25.26,25.26,0,0,0,3.48,0C295.6,13.73,297.43,14.94,299.28,19.64Z" transform="translate(0 -0.05)"/><path d="M270.57,128.63c0,1.29-.45,1.49-1.56,1.44-10.08-.39-20.17-.86-30.25-1-6.75-.13-13.42.67-19.66,3.56a35.4,35.4,0,0,0-6.32,3.91V15.21a3.87,3.87,0,0,1,1.58-3.39c7-5.84,15.25-8.8,24.15-10.2C248.63,0,258.85.12,269.06.05c1.17,0,1.54.26,1.54,1.5Q270.52,65.08,270.57,128.63Z" transform="translate(0 -0.05)"/><path d="M198,15.32V136.41a5.71,5.71,0,0,1-.08,1c-8-6.31-17.23-7.59-26.71-7.42-9.72.18-19.43.64-29.14,1.07-1.59.07-1.86-.42-1.86-1.9q.06-63.1,0-126.22c0-1.63.4-2,2-2,10,.1,20.06,0,30,1.57C181.41,3.93,189.84,7,197,13.14A2.57,2.57,0,0,1,198,15.32Z" transform="translate(0 -0.05)"/><rect class="cls-1" x="2.5" y="195.68" width="70" height="70" rx="11"/><rect class="cls-1" x="86.28" y="195.68" width="70" height="70" rx="11"/><rect class="cls-1" x="170.28" y="195.68" width="70" height="70" rx="11"/><rect class="cls-1" x="254.28" y="195.68" width="70" height="70" rx="11"/><rect class="cls-1" x="338.28" y="195.68" width="70" height="70" rx="11"/><text class="cls-2" transform="translate(16.8 252.24)">D</text><text class="cls-2" transform="translate(101.8 251.24)">A</text><text class="cls-2" transform="translate(184.8 252.24)">B</text><text class="cls-2" transform="translate(269.8 251.24)">A</text><text class="cls-2" transform="translate(353.8 252.24)">R</text><g class="cls-3"><text class="cls-4" transform="translate(9.06 309.28)">Ce</text><text class="cls-5" transform="translate(40.04 309.28)">n</text><text class="cls-4" transform="translate(55.86 309.28)">t</text><text class="cls-5" transform="translate(66.26 309.28)">r</text><text class="cls-4" transform="translate(76.56 309.28)">o </text><text class="cls-5" transform="translate(99.47 309.28)">E</text><text class="cls-4" transform="translate(113.66 309.28)">du</text><text class="cls-5" transform="translate(145.86 309.28)">c</text><text class="cls-4" transform="translate(158.24 309.28)">acional de </text><text class="cls-6" transform="translate(292.14 309.28)">T</text><text class="cls-4" transform="translate(304.4 309.28)">eología</text></g></svg>